# xmcd CD database file
#
# Track frame offsets:
#	150
#	20862
#	41498
#	79286
#	107812
#	123359
#	129904
#	147398
#	168598
#	186358
#	211605
#
# Disc length: 3460 seconds
#
# Revision: 0
# Processed by: cddbd v1.5.1PL2 Copyright (c) Steve Scherf et al.
# Submitted via: CDex 1.70beta2
#
DISCID=9b0d820b
DTITLE=Maiuko - Different Wars
DYEAR=2000
DGENRE=Jazz
TTITLE0=Breakdown The Walls
TTITLE1=My Oh My
TTITLE2=Sweet Black Mama
TTITLE3=Different Wars
TTITLE4=I Dream
TTITLE5=The Light
TTITLE6=Hold My Hand
TTITLE7=Grandma Lisa
TTITLE8=Mozambique
TTITLE9=I Make Believe
TTITLE10=Breakdown the Walls (Reprise)
EXTD=YEAR: 2000
EXTT0=
EXTT1=
EXTT2=
EXTT3=
EXTT4=
EXTT5=
EXTT6=
EXTT7=
EXTT8=
EXTT9=
EXTT10=
PLAYORDER=
